<svg xmlns="http://www.w3.org/2000/svg" width="631" height="343" fill="none" viewBox="0 0 631 343"><g clip-path="url(#clip0)"><path fill="#f2f2f2" d="M 325.5 361 C 496.6 361 635.3 351.8 635.3 340.5 C 635.3 329.2 496.6 320 325.5 320 C 154.4 320 15.7 329.2 15.7 340.5 C 15.7 351.8 154.4 361 325.5 361 Z"/><path fill="#2b2d42" d="M 313.7 116.1 C 263.2 116.1 226.9 148.4 226.9 224 C 226.9 309.6 263.2 332.2 313.7 332.2 C 364.1 332.2 402.5 307.4 402.5 224 C 402.5 134.8 364.1 116.1 313.7 116.1 Z M 314 303.8 C 279 303.8 260.8 283.3 260.8 224 C 260.8 171.7 279.8 144.1 314.7 144.1 C 349.7 144.1 368.7 162.2 368.7 224 C 368.7 281.8 348.9 303.8 314 303.8 Z"/><path fill="#e994a0" d="M 196.7 272.5 H 175.8 V 211.1 C 175.8 207.8 174.5 204.7 172.2 202.4 C 169.9 200.1 166.8 198.8 163.5 198.8 H 158.6 C 157 198.8 155.4 199.1 153.9 199.7 C 152.4 200.3 151.1 201.2 149.9 202.4 C 148.8 203.5 147.9 204.9 147.3 206.4 C 146.7 207.9 146.3 209.5 146.3 211.1 V 272.5 H 87.5 C 86.3 272.5 85.1 272.2 84 271.6 C 83 271 82.1 270.2 81.5 269.1 C 80.8 268.1 80.5 266.9 80.4 265.7 C 80.4 264.5 80.7 263.3 81.3 262.2 L 143.6 144.3 C 144.3 142.9 144.8 141.3 144.9 139.6 C 145.1 137.9 144.9 136.3 144.4 134.7 C 143.8 133.1 143 131.7 141.9 130.4 C 140.8 129.2 139.4 128.2 137.9 127.5 L 134.3 125.7 C 131.4 124.4 128.1 124.2 125.1 125.2 C 122.1 126.2 119.6 128.3 118.1 131.1 L 42.2 273.1 C 40.9 275.6 40.2 278.3 40.2 281 C 40.2 283.2 40.6 285.4 41.5 287.4 C 42.3 289.4 43.5 291.3 45.1 292.8 C 46.6 294.4 48.5 295.6 50.5 296.4 C 52.5 297.3 54.7 297.7 56.9 297.7 H 146.3 V 336.5 C 146.3 338.5 146.7 340.4 147.5 342.2 C 148.2 344 149.3 345.6 150.7 347 C 152 348.3 153.7 349.4 155.4 350.2 C 157.2 350.9 159.1 351.3 161.1 351.3 C 163 351.3 164.9 350.9 166.7 350.2 C 168.5 349.4 170.1 348.3 171.5 347 C 172.9 345.6 174 344 174.7 342.2 C 175.5 340.4 175.8 338.5 175.8 336.5 V 297.7 H 196.7 C 200 297.7 203.3 296.4 205.6 294 C 208 291.6 209.3 288.4 209.3 285.1 C 209.3 281.8 208 278.6 205.6 276.2 C 203.3 273.8 200 272.5 196.7 272.5 Z"/><path fill="#e994a0" d="M 583.2 272.5 H 562.3 V 211.1 C 562.3 207.8 561 204.7 558.7 202.4 C 556.4 200.1 553.2 198.8 550 198.8 H 545.1 C 543.5 198.8 541.9 199.1 540.4 199.7 C 538.9 200.3 537.5 201.2 536.4 202.4 C 535.2 203.5 534.3 204.9 533.7 206.4 C 533.1 207.9 532.8 209.5 532.8 211.1 V 272.5 H 473.9 C 472.7 272.5 471.5 272.2 470.5 271.6 C 469.4 271 468.5 270.2 467.9 269.1 C 467.3 268.1 466.9 266.9 466.9 265.7 C 466.9 264.5 467.1 263.3 467.7 262.2 L 530 144.3 C 530.8 142.9 531.3 141.3 531.4 139.6 C 531.5 137.9 531.3 136.3 530.8 134.7 C 530.3 133.1 529.4 131.7 528.3 130.4 C 527.2 129.2 525.9 128.2 524.4 127.5 L 520.7 125.7 C 517.8 124.4 514.6 124.2 511.6 125.2 C 508.6 126.2 506.1 128.3 504.6 131.1 L 428.6 273.1 C 427.3 275.6 426.6 278.3 426.6 281 C 426.6 285.4 428.4 289.7 431.5 292.8 C 434.7 295.9 438.9 297.7 443.3 297.7 H 532.8 V 336.5 C 532.8 340.5 534.3 344.2 537.1 347 C 539.9 349.7 543.6 351.3 547.5 351.3 C 551.4 351.3 555.2 349.7 558 347 C 560.7 344.2 562.3 340.5 562.3 336.5 V 297.7 H 583.2 C 586.5 297.7 589.7 296.4 592.1 294 C 594.4 291.6 595.8 288.4 595.8 285.1 C 595.8 281.8 594.4 278.6 592.1 276.2 C 589.7 273.8 586.5 272.5 583.2 272.5 Z"/><path stroke="#3f3d56" stroke-miterlimit="10" d="M 202.5 265.3 H 181.6 V 203.9 C 181.6 202.3 181.3 200.7 180.7 199.2 C 180 197.7 179.1 196.3 178 195.2 C 176.8 194 175.5 193.1 174 192.5 C 172.5 191.9 170.9 191.6 169.3 191.6 H 164.4 C 161.1 191.6 158 192.9 155.7 195.2 C 153.4 197.5 152.1 200.6 152.1 203.9 V 265.3 H 93.2 C 92 265.3 90.8 265 89.8 264.4 C 88.7 263.8 87.8 263 87.2 261.9 C 86.6 260.9 86.2 259.7 86.2 258.5 C 86.2 257.3 86.4 256.1 87 255 L 149.3 137.1 C 150.1 135.7 150.6 134.1 150.7 132.4 C 150.8 130.7 150.6 129.1 150.1 127.5 C 149.6 125.9 148.7 124.5 147.6 123.2 C 146.5 122 145.2 121 143.7 120.3 L 140 118.5 C 137.2 117.2 133.9 117 130.9 118 C 127.9 119 125.4 121.1 123.9 123.9 L 47.9 266 C 46.6 268.4 45.9 271.1 45.9 273.8 V 273.8 C 45.9 278.2 47.7 282.5 50.8 285.6 C 54 288.7 58.2 290.5 62.6 290.5 H 152.1 V 329.3 C 152.1 331.3 152.5 333.2 153.2 335 C 154 336.8 155 338.4 156.4 339.8 C 157.8 341.1 159.4 342.2 161.2 343 C 163 343.7 164.9 344.1 166.8 344.1 H 166.8 C 170.8 344.1 174.5 342.5 177.3 339.8 C 180 337 181.6 333.3 181.6 329.3 V 290.5 H 202.5 C 204.1 290.5 205.8 290.2 207.3 289.5 C 208.8 288.9 210.2 288 211.4 286.8 C 212.5 285.6 213.5 284.3 214.1 282.7 C 214.7 281.2 215.1 279.6 215.1 277.9 V 277.9 C 215.1 276.3 214.7 274.6 214.1 273.1 C 213.5 271.6 212.5 270.2 211.4 269 C 210.2 267.8 208.8 266.9 207.3 266.3 C 205.8 265.6 204.1 265.3 202.5 265.3 V 265.3 Z"/><path stroke="#3f3d56" stroke-miterlimit="10" d="M 594 265.3 H 573.1 V 203.9 C 573.1 200.6 571.8 197.5 569.5 195.2 C 567.2 192.9 564 191.6 560.8 191.6 H 555.9 C 554.3 191.6 552.7 191.9 551.2 192.5 C 549.7 193.1 548.3 194 547.2 195.2 C 546 196.3 545.1 197.7 544.5 199.2 C 543.9 200.7 543.6 202.3 543.6 203.9 V 265.3 H 484.7 C 483.5 265.3 482.3 265 481.3 264.4 C 480.2 263.8 479.3 263 478.7 261.9 C 478.1 260.9 477.7 259.7 477.7 258.5 C 477.7 257.3 477.9 256.1 478.5 255 L 540.8 137.1 C 541.6 135.7 542 134.1 542.2 132.4 C 542.3 130.7 542.1 129.1 541.6 127.5 C 541.1 125.9 540.2 124.5 539.1 123.2 C 538 122 536.7 121 535.2 120.3 L 531.5 118.5 C 528.6 117.2 525.4 117 522.4 118 C 519.4 119 516.9 121.1 515.4 123.9 L 439.4 266 C 438.1 268.4 437.4 271.1 437.4 273.8 C 437.4 278.2 439.2 282.5 442.3 285.6 C 445.4 288.7 449.7 290.5 454.1 290.5 H 543.6 V 329.3 C 543.6 333.3 545.1 337 547.9 339.8 C 550.7 342.5 554.4 344.1 558.3 344.1 V 344.1 C 562.2 344.1 566 342.5 568.8 339.8 C 571.5 337 573.1 333.3 573.1 329.3 V 290.5 H 594 C 595.6 290.5 597.2 290.2 598.8 289.5 C 600.3 288.9 601.7 288 602.9 286.8 C 604 285.6 605 284.3 605.6 282.7 C 606.2 281.2 606.5 279.6 606.5 277.9 V 277.9 C 606.5 274.6 605.2 271.4 602.9 269 C 600.5 266.6 597.3 265.3 594 265.3 V 265.3 Z"/><path stroke="#3f3d56" stroke-miterlimit="10" d="M 325.2 109.6 C 274.7 109.6 238.4 141.9 238.4 217.5 C 238.4 303.1 274.7 325.8 325.2 325.8 C 375.6 325.8 414 300.9 414 217.5 C 414 128.3 375.6 109.6 325.2 109.6 Z M 325.5 297.3 C 290.5 297.3 272.3 276.8 272.3 217.5 C 272.3 165.2 291.3 137.6 326.2 137.6 C 361.2 137.6 380.2 155.8 380.2 217.5 C 380.2 275.3 360.5 297.3 325.5 297.3 V 297.3 Z"/><path fill="#2f2e41" d="M 284.7 36.3 C 288.9 36.3 292.3 32.9 292.3 28.7 C 292.3 24.5 288.9 21.1 284.7 21.1 C 280.5 21.1 277.1 24.5 277.1 28.7 C 277.1 32.9 280.5 36.3 284.7 36.3 Z"/><path fill="#2f2e41" d="M 303.2 73.1 C 314.9 73.1 324.4 60.7 324.4 45.5 C 324.4 30.3 314.9 18 303.2 18 C 291.4 18 281.9 30.3 281.9 45.5 C 281.9 60.7 291.4 73.1 303.2 73.1 Z"/><path fill="#000000" d="M 303.2 64.7 C 292.5 64.7 283.7 54.6 282.2 41.4 C 282 42.7 281.9 44.1 281.9 45.5 C 281.9 60.7 291.4 73.1 303.2 73.1 C 314.9 73.1 324.4 60.7 324.4 45.5 C 324.4 44.1 324.4 42.7 324.2 41.4 C 322.6 54.6 313.8 64.7 303.2 64.7 Z" opacity=".1"/><path fill="#3f3d56" d="M 346.4 126.1 C 346 128 344 129.5 341.8 130.6 C 337.2 132.8 331.6 133.4 326.1 133.6 C 324.7 133.7 323.3 133.7 321.9 133.6 C 319.2 133.3 316.7 132.1 314.7 130.3 C 314.6 130.2 314.5 130 314.4 129.9 C 314.3 129.8 314.3 129.6 314.3 129.4 C 314.3 129.3 314.3 129.1 314.4 128.9 C 314.5 128.8 314.6 128.7 314.7 128.6 C 317.7 125.4 322.5 123.4 327.4 122 C 331.2 120.9 337.7 118.2 341.7 118.5 C 345.6 118.9 347 123.8 346.4 126.1 Z"/><path fill="#000000" d="M 346.4 126.1 C 346 128 344 129.5 341.8 130.6 C 337.2 132.8 331.6 133.4 326.1 133.6 C 324.7 133.7 323.3 133.7 321.9 133.6 C 319.2 133.3 316.7 132.1 314.7 130.3 C 314.6 130.2 314.5 130 314.4 129.9 C 314.3 129.8 314.3 129.6 314.3 129.4 C 314.3 129.3 314.3 129.1 314.4 128.9 C 314.5 128.8 314.6 128.7 314.7 128.6 C 317.7 125.4 322.5 123.4 327.4 122 C 331.2 120.9 337.7 118.2 341.7 118.5 C 345.6 118.9 347 123.8 346.4 126.1 Z" opacity=".1"/><path fill="#3f3d56" d="M 288.2 112.1 C 286.8 114.9 286.5 118 287.5 121 C 288.4 123.9 290.2 126.4 292.7 128.3 C 298.6 133.1 306.7 133.7 314.3 133.7 C 321 133.6 327.6 133.1 334.3 132.3 C 336.5 132.1 338.6 131.6 340.7 130.8 C 343.2 129.7 345.4 127.7 346.3 125.2 C 347.1 122.6 346.5 119.5 344.4 117.8 C 342.6 116.3 340 116.1 337.7 116 L 324.1 115.2 C 325.4 113.8 327.2 113 328.9 112 C 331 110.7 332.5 108.5 334 106.6 C 336.5 103.7 339.1 101 341.9 98.5 C 342.4 101 344 103.1 345.9 104.8 C 347.7 106.6 349.9 108 351.9 109.6 C 356.6 113.6 360 119.1 365 122.8 C 368.5 121.9 371.7 120.3 374.4 118.1 L 372.5 114.6 C 372.3 114.3 372.1 113.9 371.8 113.7 C 371.2 113.4 370.5 113.5 369.9 113.4 C 368.2 113.2 367.4 111.2 366.8 109.6 C 364.9 105.3 361.4 101.9 358.4 98.2 C 356.2 95.5 354.2 92.7 352.5 89.6 C 351.5 87.8 350.6 85.9 349.2 84.3 C 347.9 82.7 346 81.5 343.9 81.5 C 342 81.5 340.3 82.4 338.8 83.4 C 333.9 86.2 329.3 89.4 324.9 92.8 C 322.6 94.6 320.3 96.5 317.5 97.6 C 316.4 98.1 315.2 98.4 314.1 99 C 312.2 100 310.7 101.6 309.1 103.1 C 303.5 108.4 295.9 111.8 288.2 112.1 Z"/><path fill="#fbbebe" d="M 316.5 74.4 C 316.5 76 316.1 77.6 315.5 79.1 C 315.2 79.9 314.7 80.6 314.2 81.1 C 313.6 81.7 312.9 82.1 312.1 82.4 C 311 82.7 309.9 82.7 308.8 82.5 C 307.9 82.4 306.9 82.1 306.1 81.6 C 304.9 80.7 304.2 79.2 304 77.6 C 303.8 76.1 303.9 74.6 303.7 73 C 303.6 71.8 303.3 70.6 303 69.3 C 302.9 68.9 302.8 68.5 302.7 68.2 C 302.6 67.8 302.5 67.4 302.4 67 C 302.3 66.6 302.3 66.2 302.2 65.8 C 302.1 65.5 302.1 65.2 302.1 64.9 C 302 63.9 301.9 63 301.6 62 C 301.3 61.4 301 60.9 300.6 60.4 C 300.4 60.1 300.3 59.9 300.1 59.6 C 299.7 59 299.5 58.2 299.5 57.4 C 299.6 57.3 299.6 57.2 299.6 57.1 C 299.6 57 299.7 57 299.7 56.9 C 299.9 56.9 300 56.8 300.1 56.7 C 300.3 56.6 300.4 56.4 300.4 56.3 C 300.5 55.9 300.4 55.6 300.3 55.2 C 300.2 54.8 300 54.3 299.8 53.9 C 299.6 53.6 299.1 53.1 299.1 52.8 C 299.1 52.1 300.3 51.6 300.8 51.4 C 302.4 50.6 304.1 50.2 305.9 50.3 C 307 50.4 308.2 50.7 308.8 51.7 C 309.4 52.5 309.3 53.6 309.6 54.6 C 309.6 54.7 309.6 54.9 309.7 55 C 309.9 55.1 310 55.2 310.2 55.2 C 310.4 55.2 310.7 55.3 311 55.2 H 311 C 311.1 55.2 311.1 55.2 311.2 55.2 C 311.6 55.1 312.1 54.9 312.4 54.7 C 312.6 54.6 312.9 54.6 313.1 54.5 C 313.1 54.5 313.1 54.5 313.1 54.5 C 314.1 57.4 314.2 60.6 314.9 63.6 C 315.3 65 315.8 66.5 315.9 68 C 315.9 68.1 315.9 68.1 315.9 68.2 C 315.9 68.7 315.9 69.2 315.9 69.7 C 315.9 69.9 316 70.1 316 70.3 C 316.1 70.7 316.2 71 316.3 71.4 L 316.3 71.4 C 316.3 71.5 316.4 71.6 316.4 71.7 C 316.4 71.8 316.4 71.9 316.5 71.9 L 316.5 71.9 C 316.6 72.8 316.6 73.6 316.5 74.4 Z"/><path fill="#fbbebe" d="M 303.6 55.3 C 309.6 55.3 314.5 50.4 314.5 44.4 C 314.5 38.4 309.6 33.5 303.6 33.5 C 297.5 33.5 292.7 38.4 292.7 44.4 C 292.7 50.4 297.5 55.3 303.6 55.3 Z"/><path fill="#fbbebe" d="M 372.8 103.8 C 372.5 100.8 371.4 98 369.7 95.5 C 370 97.2 370.3 98.9 370.6 100.6 C 370.2 100.7 369.8 100.7 369.5 100.6 C 369.1 100.4 368.8 100.2 368.6 100 C 368.1 99.4 367.8 98.7 367.5 98 C 366.3 95 364.7 92.1 362.7 89.4 C 355.8 88.8 348.9 85.9 342.8 82.6 C 336.7 79.2 331 75.2 325 71.7 C 323.9 71.1 322.8 70.5 321.7 70 C 319.8 69.3 317.7 68.9 315.9 68 C 315.8 68 315.7 67.9 315.6 67.8 C 315.2 67.6 314.8 67.4 314.4 67.1 C 314.2 66.9 314 66.7 313.9 66.6 C 313 65.5 312.3 64.3 311.8 63.1 C 310.8 60.9 310.5 58.4 309.5 56.3 C 310 55.9 310.5 55.5 311 55.2 H 311 C 311.1 55.2 311.2 55.1 311.2 55.1 C 311.6 54.9 312 54.8 312.4 54.7 C 312.6 54.6 312.9 54.6 313.1 54.5 C 313.1 54.5 313.1 54.5 313.1 54.5 C 314.2 54.3 315.3 54.4 316.4 54.8 C 317.9 55.3 319.2 56.3 320.4 57.3 C 322.5 58.7 324.5 60.3 326.4 62 C 327.4 63 328.4 64.1 329.5 65 C 330.5 65.8 331.5 66.4 332.5 67 C 338.6 70.7 344.8 74.3 350.9 78 C 353 79.2 355.1 80.4 357.1 81.7 C 360.2 83.7 363.1 85.9 366.1 88 C 367.9 89.3 369.6 90.6 371.4 91.8 C 371.9 92.2 372.4 92.7 372.8 93.2 C 373.2 93.8 373.4 94.5 373.5 95.2 C 373.9 98.1 373.7 101 372.8 103.8 Z"/><path fill="#fd3d57" d="M 319.2 82.6 C 318.5 85.9 315.2 87.9 313.4 90.8 C 311.3 94.4 312.1 98.6 312.9 102.7 C 311.5 104 310 105.3 308.5 106.5 C 307.7 107.2 306.8 107.9 306 108.6 C 304.7 109.4 303.3 110.2 301.9 110.9 C 300.6 111.6 299.3 112.2 298 112.9 C 296.8 113.6 295.5 114.1 294.1 114.5 C 291.5 115.2 288.8 114.7 286.2 114 C 285.9 113.9 285.6 113.8 285.3 113.6 C 285.2 113.5 285 113.4 284.9 113.3 C 284.7 112.8 284.6 112.3 284.7 111.8 C 284.9 107.4 286 103.2 287 99 C 287.6 96.5 288.4 94 289.3 91.6 C 290.2 89.6 291.3 87.6 292.5 85.7 C 293.8 83.3 295.4 81 297.1 78.9 C 298 78.1 298.7 77.2 299.3 76.1 C 300 74.6 299.7 72.9 299.8 71.3 C 299.9 70.1 300.3 68.9 300.8 67.8 V 67.8 C 301.1 67.2 301.4 66.6 301.8 66.1 C 302 66.5 302.2 66.9 302.4 67.3 C 302.5 67.6 302.6 67.9 302.7 68.2 C 302.9 68.5 303 68.9 303.2 69.2 C 303.6 70.2 304 71.2 304.4 72.2 C 304.9 73.5 305.6 74.6 306.4 75.7 C 306.8 76.2 307.3 76.7 307.9 76.9 C 308.5 77.2 309.2 77.3 309.8 77.3 C 310.5 77.2 311.1 77 311.7 76.7 C 312.2 76.3 312.6 75.8 312.9 75.2 C 313.6 74.1 314 72.9 314.3 71.7 C 314.6 70.2 314.7 68.6 314.4 67.1 C 314 64.1 312.7 61.1 311.8 58.4 C 311.4 57.5 311.2 56.5 311.2 55.5 C 311.2 55.4 311.2 55.3 311.2 55.2 C 311.2 55.2 311.2 55.1 311.2 55.1 C 311.6 54.9 312 54.8 312.4 54.7 C 312.6 54.6 312.9 54.6 313.1 54.5 C 313.9 58.9 314.7 63.2 315.5 67.5 C 315.5 67.6 315.5 67.7 315.6 67.8 C 315.7 68.4 315.8 69.1 315.9 69.7 C 316 70.2 316.2 70.8 316.3 71.4 L 316.3 71.4 C 316.4 71.6 316.4 71.8 316.5 71.9 L 316.5 71.9 C 316.6 72.5 316.8 73 316.9 73.5 C 318 76.5 319.9 79.5 319.2 82.6 Z"/><path fill="#3f3d56" d="M 363.5 129 C 363.4 129.6 363.6 130.2 363.8 130.8 C 364.5 132 366.2 132.3 367.6 132.4 C 375.9 133.1 384.2 132.9 392.4 131.7 C 392.8 131.7 393.3 131.5 393.7 131.3 C 394.8 130.5 394.1 128.5 392.8 127.8 C 391.6 127.2 390 127.4 388.6 127.1 C 387.3 126.7 385.9 126.2 384.7 125.4 C 381.9 123.8 379.1 122.1 376.3 120.3 C 374.7 119.2 372.7 118.1 370.9 118.7 C 365.9 120.4 363.4 123.6 363.5 129 Z"/><path fill="#fbbebe" d="M 302.5 66.7 V 66.7 C 302.5 66.8 302.4 66.9 302.4 67 C 302.4 67.1 302.4 67.2 302.4 67.3 C 302.1 68.5 301.8 69.7 301.5 70.8 C 300.6 74 299.4 77.2 298.3 80.3 C 295.1 88.6 291.9 97 288.8 105.3 C 288 107.4 287.2 109.5 286.3 111.6 C 286 112.2 285.7 112.9 285.3 113.6 C 284.2 116.1 283.2 118.7 282.8 121.4 C 282.5 123.1 282.4 124.9 282.7 126.7 C 283.1 128.4 284.1 130.1 285.8 130.8 C 286.6 131.1 287.7 131.5 287.5 132.3 C 287.4 132.8 286.9 133 286.4 133.1 C 285.8 133.2 285.1 133.2 284.5 133 C 283.9 132.8 283.4 132.5 282.9 132.1 C 282 131.3 281.3 130.1 280.2 130 C 279.3 129.9 278.6 130.4 277.8 130.7 C 274.8 132.1 271.2 131.1 268 130.1 C 268.3 128.8 269.6 128 270.9 127.7 C 272.2 127.5 273.5 127.7 274.8 127.6 C 275.3 127.6 275.7 127.5 276 127.3 C 276.4 127 276.6 126.6 276.7 126.2 C 277.5 123.7 278.2 121.1 278.6 118.5 C 279 115.7 279.2 113 279.8 110.3 C 280.3 108.1 281 106.1 281.6 104 C 282.8 99.8 283.8 95.4 284.6 91.1 C 285 89.3 285.2 87.4 285.4 85.6 C 285.5 84 285.5 82.5 285.6 81 C 285.9 79 286.3 77 286.9 75.1 C 287.4 73 288 70.9 288.6 68.8 C 289.4 65.7 290.3 62.5 292.4 60.1 C 293.1 59.3 294 58.6 295.1 58.1 C 296.1 57.6 297.2 57.3 298.3 57.3 C 298.7 57.3 299.1 57.3 299.5 57.4 C 299.6 57.4 299.7 57.5 299.8 57.5 C 300.2 57.6 300.6 57.8 301 58 C 301.7 57.6 302 57.7 302.5 58.4 C 302.8 59.1 303 59.8 303 60.6 C 303 62.7 302.8 64.7 302.5 66.7 Z"/><path fill="#6c63ff" d="M 303.2 69.2 L 303.2 69.2 L 303 69.3 L 301.5 70.8 L 300.8 67.8 L 298.3 57.3 C 298.7 57.3 299.1 57.3 299.5 57.4 C 299.6 57.3 299.6 57.2 299.6 57.1 L 299.8 57.5 L 300.6 60.4 L 302.2 65.8 L 302.5 66.7 V 66.7 L 303.2 69.2 Z"/><path fill="#2f2e41" d="M 312.6 35.7 C 312.6 36.7 312.4 37.7 312 38.6 C 311.7 39.5 311.1 40.3 310.4 41 C 310.2 41.2 309.9 41.4 309.6 41.6 C 308.4 42.6 306.8 43.1 305.2 43.1 H 296.4 C 294.4 43.1 292.5 42.3 291.1 41 C 289.7 39.6 289 37.7 289 35.7 C 289 33.8 289.7 31.9 291.1 30.5 C 292.5 29.1 294.4 28.3 296.4 28.3 H 305.2 C 307.2 28.3 309.1 29.1 310.4 30.5 C 311.8 31.9 312.6 33.8 312.6 35.7 Z"/><path fill="#2f2e41" d="M 320.9 36.3 C 325.1 36.3 328.5 32.9 328.5 28.7 C 328.5 24.5 325.1 21.1 320.9 21.1 C 316.7 21.1 313.4 24.5 313.4 28.7 C 313.4 32.9 316.7 36.3 320.9 36.3 Z"/><path fill="#000000" d="M 320.7 21.1 C 320.6 21.1 320.6 21.1 320.5 21.1 C 322.4 21.2 324.3 22 325.6 23.5 C 327 24.9 327.8 26.8 327.8 28.7 C 327.8 30.7 327 32.6 325.6 34 C 324.3 35.4 322.4 36.2 320.5 36.3 C 320.6 36.3 320.6 36.3 320.7 36.3 C 322.8 36.3 324.7 35.5 326.1 34.1 C 327.5 32.7 328.3 30.7 328.3 28.7 C 328.3 26.7 327.5 24.8 326.1 23.4 C 324.7 21.9 322.8 21.1 320.7 21.1 Z" opacity=".1"/><path fill="#000000" d="M 284.7 21.1 C 284.8 21.1 284.9 21.1 285 21.1 C 283 21.2 281.2 22 279.8 23.5 C 278.4 24.9 277.7 26.8 277.7 28.7 C 277.7 30.7 278.4 32.6 279.8 34 C 281.2 35.4 283 36.2 285 36.3 C 284.9 36.3 284.8 36.3 284.7 36.3 C 282.7 36.3 280.8 35.5 279.4 34.1 C 277.9 32.6 277.1 30.7 277.1 28.7 C 277.1 26.7 277.9 24.8 279.4 23.4 C 280.8 21.9 282.7 21.1 284.7 21.1 Z" opacity=".1"/><path fill="#000000" d="M 309.6 41.6 C 308.4 42.6 306.8 43.1 305.2 43.1 H 296.4 C 294.8 43.1 293.2 42.6 291.9 41.6 H 309.6 Z" opacity=".1"/><path fill="#fbbebe" d="M 366.9 96.5 C 366.9 96.5 368.8 102 370.6 100.6 L 369.2 93.4 L 366.9 96.5 Z"/><path fill="#57b894" d="M 599.3 264.3 C 601.1 265 603 265.2 604.9 265 C 606.8 264.8 608.6 264.1 610.2 263.1 C 611.8 262 613.1 260.7 614.1 259 C 615 257.4 615.6 255.6 615.7 253.7 C 615.8 251.8 615.5 249.9 614.8 248.2 C 614.1 246.4 613 244.8 611.5 243.6 C 610.1 242.4 608.4 241.5 606.6 241 C 604.7 240.5 602.8 240.5 601 240.9 L 601.3 247.2 L 598.3 241.8 C 595.4 243.2 593.1 245.6 592 248.7 C 591.6 249.7 591.4 250.8 591.3 252 C 591.1 254.6 591.8 257.3 593.3 259.5 C 594.7 261.7 596.8 263.4 599.3 264.3 Z"/><path stroke="#3f3d56" stroke-miterlimit="10" d="M 614.1 337.3 C 613 331.9 617.6 327.2 622.1 324.1 C 626.6 321 631.8 318 633.4 312.7 C 635.6 305.2 629 298.3 623.9 292.4 C 620.1 288 616.8 283.2 614.2 278 C 613.1 275.9 612.1 273.7 611.9 271.4 C 611.4 268.1 612.5 264.8 613.6 261.6 C 617.2 251 621 240.5 625.1 230.1"/><path stroke="#3f3d56" stroke-miterlimit="10" d="M 599.8 262.7 C 601.6 263.3 603.5 263.6 605.4 263.4 C 607.3 263.1 609.1 262.5 610.7 261.5 C 612.3 260.4 613.6 259 614.6 257.4 C 615.5 255.8 616.1 253.9 616.2 252.1 C 616.3 250.2 616 248.3 615.3 246.5 C 614.6 244.8 613.5 243.2 612 242 C 610.6 240.7 608.9 239.9 607.1 239.4 C 605.2 238.9 603.3 238.9 601.5 239.3 L 601.8 245.6 L 598.8 240.2 C 595.9 241.5 593.6 244 592.5 247 C 592.1 248.1 591.9 249.2 591.8 250.3 C 591.6 253 592.3 255.6 593.8 257.9 C 595.2 260.1 597.3 261.8 599.8 262.7 V 262.7 Z"/><path fill="#57b894" d="M 612.6 227.9 C 613.3 226 614.4 224.3 616 222.9 C 617.5 221.6 619.4 220.6 621.4 220.2 L 622.4 226.2 L 624.2 219.9 C 626.8 219.9 629.3 220.8 631.4 222.3 C 633.5 223.9 635 226.1 635.8 228.6 C 636.5 231 636.5 233.7 635.6 236.1 C 634.7 238.6 633.1 240.7 631 242.2 C 628.9 243.6 626.3 244.4 623.7 244.3 C 621.1 244.3 618.6 243.4 616.6 241.8 C 614.5 240.2 613 238 612.3 235.5 C 611.6 233 611.7 230.4 612.6 227.9 H 612.6 Z"/><path stroke="#3f3d56" stroke-miterlimit="10" d="M 613.2 225.8 C 613.9 223.9 615.1 222.1 616.7 220.8 C 618.2 219.4 620 218.5 622 218 L 623 224 L 624.9 217.7 C 627.5 217.8 630 218.6 632.1 220.2 C 634.2 221.7 635.7 223.9 636.4 226.4 C 637.2 228.9 637.1 231.5 636.3 234 C 635.4 236.4 633.8 238.5 631.7 240 C 629.5 241.5 627 242.2 624.4 242.2 C 621.8 242.1 619.3 241.2 617.3 239.6 C 615.2 238 613.7 235.8 613 233.4 C 612.3 230.9 612.4 228.2 613.2 225.8 H 613.2 Z"/><path fill="#57b894" d="M 621.7 292.5 C 624.6 293.6 627.7 293.5 630.4 292.4 C 633.2 291.3 635.5 289.2 636.8 286.5 C 638.2 283.8 638.5 280.7 637.7 277.8 C 636.9 274.9 635.1 272.4 632.5 270.8 L 631.1 275.6 L 630.1 269.6 C 630.1 269.6 630.1 269.6 630.1 269.6 C 628.6 269 627 268.8 625.4 268.8 C 623.7 268.9 622.2 269.3 620.7 270 C 619.3 270.7 618 271.6 616.9 272.8 C 615.8 274 615 275.4 614.4 276.9 C 613.9 278.4 613.6 280 613.7 281.6 C 613.8 283.2 614.1 284.8 614.8 286.2 C 615.5 287.7 616.5 289 617.6 290.1 C 618.8 291.1 620.2 292 621.7 292.5 H 621.7 Z"/><path stroke="#3f3d56" stroke-miterlimit="10" d="M 622.3 290.3 C 625.1 291.4 628.2 291.3 631 290.2 C 633.8 289.1 636.1 287 637.4 284.3 C 638.8 281.6 639.1 278.5 638.3 275.6 C 637.5 272.7 635.6 270.2 633.1 268.6 L 631.7 273.4 L 630.7 267.4 C 630.7 267.4 630.7 267.4 630.6 267.4 C 629.1 266.8 627.5 266.6 625.9 266.6 C 624.3 266.7 622.8 267.1 621.3 267.8 C 619.8 268.5 618.5 269.4 617.5 270.6 C 616.4 271.8 615.5 273.2 615 274.7 C 614.4 276.2 614.2 277.8 614.3 279.4 C 614.3 281 614.7 282.6 615.4 284 C 616.1 285.5 617 286.8 618.2 287.9 C 619.4 289 620.8 289.8 622.3 290.3 H 622.3 Z"/><path fill="#57b894" d="M 609 312.8 C 609.5 315.6 610.9 318.1 613 319.9 C 615.1 321.8 617.8 322.8 620.6 322.9 C 623.4 323 626.2 322.1 628.4 320.4 C 630.6 318.8 632.2 316.3 632.9 313.6 C 633.6 310.9 633.3 308 632.1 305.5 C 630.9 303 628.9 300.9 626.3 299.7 C 623.8 298.5 621 298.2 618.2 298.8 C 615.5 299.5 613.1 301 611.4 303.3 L 616.8 311.4 L 609.4 307.1 C 608.8 308.9 608.7 310.9 609 312.8 Z"/><path stroke="#3f3d56" stroke-miterlimit="10" d="M 609.5 311.2 C 610 314 611.4 316.5 613.5 318.3 C 615.6 320.1 618.3 321.2 621.1 321.3 C 623.9 321.4 626.7 320.5 628.9 318.8 C 631.2 317.1 632.7 314.7 633.4 312 C 634.1 309.3 633.8 306.4 632.6 303.9 C 631.4 301.3 629.4 299.3 626.8 298.1 C 624.3 296.9 621.5 296.6 618.7 297.2 C 616 297.9 613.6 299.4 611.9 301.6 L 617.3 309.8 L 609.9 305.5 C 609.3 307.3 609.2 309.3 609.5 311.2 V 311.2 Z"/><path fill="#57b894" d="M 13.3 294.1 C 14.5 294.5 15.7 294.7 16.9 294.5 C 18.2 294.4 19.4 293.9 20.4 293.3 C 21.5 292.6 22.3 291.7 23 290.6 C 23.6 289.5 24 288.3 24 287.1 C 24.1 285.9 23.9 284.6 23.5 283.5 C 23 282.3 22.2 281.3 21.3 280.5 C 20.4 279.7 19.2 279.1 18 278.8 C 16.8 278.5 15.6 278.4 14.4 278.7 L 14.6 282.8 L 12.6 279.3 C 10.7 280.2 9.2 281.8 8.5 283.8 C 8.2 284.5 8.1 285.2 8 286 C 7.9 287.7 8.3 289.4 9.3 290.9 C 10.2 292.4 11.6 293.5 13.3 294.1 Z"/><path stroke="#3f3d56" stroke-miterlimit="10" d="M 23 342 C 22.3 338.5 25.3 335.4 28.2 333.4 C 31.2 331.3 34.6 329.3 35.6 325.9 C 37.1 321 32.8 316.4 29.4 312.5 C 26.9 309.6 24.8 306.5 23 303.1 C 22.3 301.7 21.8 300.3 21.5 298.8 C 21.2 296.6 21.9 294.4 22.7 292.3 C 25 285.3 27.5 278.4 30.2 271.6"/><path stroke="#3f3d56" stroke-miterlimit="10" d="M 13.6 293 C 14.8 293.4 16 293.6 17.3 293.4 C 18.5 293.3 19.7 292.9 20.7 292.2 C 21.8 291.5 22.7 290.6 23.3 289.5 C 23.9 288.5 24.3 287.3 24.4 286 C 24.5 284.8 24.3 283.5 23.8 282.4 C 23.3 281.2 22.6 280.2 21.6 279.4 C 20.7 278.6 19.6 278 18.4 277.7 C 17.2 277.4 15.9 277.4 14.7 277.6 L 14.9 281.8 L 12.9 278.2 C 11 279.1 9.5 280.7 8.8 282.7 C 8.6 283.4 8.4 284.2 8.4 284.9 C 8.2 286.6 8.7 288.4 9.6 289.8 C 10.6 291.3 12 292.4 13.6 293 V 293 Z"/><path fill="#57b894" d="M 22 270.2 C 22.4 268.9 23.2 267.8 24.2 266.9 C 25.2 266 26.5 265.4 27.8 265.1 L 28.4 269 L 29.7 264.9 C 31.4 264.9 33 265.5 34.4 266.5 C 35.7 267.5 36.7 269 37.2 270.6 C 37.7 272.2 37.7 274 37.1 275.6 C 36.6 277.2 35.5 278.6 34.1 279.5 C 32.7 280.5 31 281 29.3 280.9 C 27.6 280.9 26 280.3 24.6 279.3 C 23.3 278.2 22.3 276.8 21.8 275.2 C 21.3 273.5 21.4 271.8 22 270.2 Z"/><path stroke="#3f3d56" stroke-miterlimit="10" d="M 22.4 268.8 C 22.9 267.5 23.7 266.4 24.7 265.5 C 25.7 264.6 26.9 264 28.2 263.7 L 28.9 267.6 L 30.1 263.5 C 31.8 263.5 33.4 264.1 34.8 265.1 C 36.2 266.1 37.2 267.5 37.7 269.2 C 38.2 270.8 38.1 272.5 37.6 274.1 C 37 275.8 35.9 277.1 34.5 278.1 C 33.1 279.1 31.5 279.6 29.8 279.5 C 28.1 279.5 26.4 278.9 25.1 277.9 C 23.7 276.8 22.7 275.4 22.3 273.7 C 21.8 272.1 21.8 270.4 22.4 268.8 V 268.8 Z"/><path fill="#57b894" d="M 28 312.6 C 29.9 313.3 31.9 313.3 33.7 312.5 C 35.6 311.8 37.1 310.4 37.9 308.6 C 38.8 306.9 39 304.9 38.5 303 C 38 301.1 36.8 299.4 35.1 298.3 L 34.2 301.5 L 33.5 297.5 C 33.5 297.5 33.5 297.5 33.5 297.5 C 32.5 297.2 31.4 297 30.4 297 C 29.3 297.1 28.3 297.4 27.3 297.8 C 26.4 298.2 25.5 298.9 24.8 299.7 C 24.1 300.4 23.5 301.3 23.2 302.3 C 22.8 303.3 22.7 304.4 22.7 305.4 C 22.8 306.5 23 307.5 23.5 308.5 C 23.9 309.4 24.5 310.3 25.3 311 C 26.1 311.7 27 312.3 28 312.6 Z"/><path stroke="#3f3d56" stroke-miterlimit="10" d="M 28.4 311.2 C 30.2 311.9 32.3 311.8 34.1 311.1 C 35.9 310.4 37.4 309 38.3 307.2 C 39.2 305.4 39.4 303.4 38.9 301.5 C 38.3 299.6 37.1 298 35.5 296.9 L 34.5 300.1 L 33.9 296.1 C 33.9 296.1 33.9 296.1 33.9 296.1 C 32.9 295.7 31.8 295.6 30.8 295.6 C 29.7 295.7 28.7 295.9 27.7 296.4 C 25.8 297.3 24.3 298.9 23.6 300.9 C 22.8 302.9 22.9 305.1 23.8 307 C 24.8 309 26.4 310.5 28.4 311.2 V 311.2 Z"/><path fill="#57b894" d="M 19.6 325.9 C 20 327.8 20.9 329.4 22.3 330.6 C 23.7 331.8 25.4 332.5 27.3 332.6 C 29.1 332.6 30.9 332.1 32.4 331 C 33.9 329.8 34.9 328.3 35.3 326.5 C 35.8 324.7 35.6 322.8 34.8 321.1 C 34 319.5 32.7 318.1 31 317.3 C 29.4 316.5 27.5 316.3 25.7 316.8 C 23.9 317.2 22.3 318.2 21.2 319.7 L 24.8 325 L 19.9 322.2 C 19.5 323.4 19.4 324.7 19.6 325.9 Z"/><path stroke="#3f3d56" stroke-miterlimit="10" d="M 20 324.9 C 20.3 326.7 21.2 328.3 22.6 329.6 C 24 330.8 25.8 331.5 27.6 331.5 C 29.4 331.6 31.3 331 32.7 329.9 C 34.2 328.8 35.2 327.2 35.7 325.4 C 36.1 323.6 35.9 321.7 35.1 320.1 C 34.4 318.4 33 317.1 31.4 316.3 C 29.7 315.5 27.8 315.3 26 315.7 C 24.2 316.1 22.6 317.1 21.5 318.6 L 25.1 324 L 20.2 321.1 C 19.8 322.3 19.7 323.6 20 324.9 V 324.9 Z"/><path fill="#2f2e41" d="M 290.5 218.3 C 296 218.3 300.4 212.5 300.4 205.4 C 300.4 198.2 296 192.4 290.5 192.4 C 284.9 192.4 280.5 198.2 280.5 205.4 C 280.5 212.5 284.9 218.3 290.5 218.3 Z"/><path fill="#2f2e41" d="M 344.8 218.6 C 350.3 218.6 354.8 212.8 354.8 205.6 C 354.8 198.5 350.3 192.7 344.8 192.7 C 339.3 192.7 334.8 198.5 334.8 205.6 C 334.8 212.8 339.3 218.6 344.8 218.6 Z"/><path fill="#2f2e41" d="M 337.2 243.8 C 337.2 249.6 329 254.4 318.9 254.4 C 308.9 254.4 300.7 249.6 300.7 243.8 C 300.7 238.8 306.9 234.5 315 233.5 C 316.3 233.3 317.6 233.2 318.9 233.2 C 321.1 233.2 323.3 233.5 325.5 233.9 C 332.3 235.5 337.2 239.3 337.2 243.8 Z"/><path stroke="#3f3d56" stroke-miterlimit="10" d="M 292.8 215.3 C 298.3 215.3 302.8 209.5 302.8 202.4 C 302.8 195.3 298.3 189.5 292.8 189.5 C 287.3 189.5 282.8 195.3 282.8 202.4 C 282.8 209.5 287.3 215.3 292.8 215.3 Z"/><path stroke="#3f3d56" stroke-miterlimit="10" d="M 347.1 215.6 C 352.7 215.6 357.1 209.8 357.1 202.7 C 357.1 195.6 352.7 189.8 347.1 189.8 C 341.6 189.8 337.2 195.6 337.2 202.7 C 337.2 209.8 341.6 215.6 347.1 215.6 Z"/><path stroke="#3f3d56" stroke-miterlimit="10" d="M 321.3 251.4 C 331.4 251.4 339.5 246.7 339.5 240.9 C 339.5 235 331.4 230.3 321.3 230.3 C 311.2 230.3 303.1 235 303.1 240.9 C 303.1 246.7 311.2 251.4 321.3 251.4 Z"/><path fill="#ffffff" d="M 325.7 234.8 C 325.7 235.6 325.4 236.3 324.9 236.8 C 324.7 237.1 324.4 237.3 324.1 237.4 C 323.8 237.6 323.4 237.6 323.1 237.6 H 317.2 C 316.5 237.6 315.8 237.3 315.3 236.8 C 314.8 236.3 314.5 235.5 314.5 234.8 C 314.5 234.3 314.7 233.7 315 233.2 C 316.3 233 317.6 232.9 318.9 232.9 C 321.1 232.9 323.3 233.2 325.5 233.7 C 325.6 234.1 325.7 234.4 325.7 234.8 Z"/><path fill="#ffffff" d="M 292.8 201.8 C 294.4 201.8 295.8 200.5 295.8 198.9 C 295.8 197.3 294.4 196 292.8 196 C 291.2 196 289.9 197.3 289.9 198.9 C 289.9 200.5 291.2 201.8 292.8 201.8 Z"/><path fill="#ffffff" d="M 347.4 201.8 C 349.1 201.8 350.4 200.5 350.4 198.9 C 350.4 197.3 349.1 196 347.4 196 C 345.8 196 344.5 197.3 344.5 198.9 C 344.5 200.5 345.8 201.8 347.4 201.8 Z"/><path fill="#6c63ff" d="M 350.4 229.4 C 352 229.4 353.3 228.1 353.3 226.5 C 353.3 224.9 352 223.6 350.4 223.6 C 348.7 223.6 347.4 224.9 347.4 226.5 C 347.4 228.1 348.7 229.4 350.4 229.4 Z" opacity=".3"/><path fill="#6c63ff" d="M 278.7 229.4 C 280.3 229.4 281.7 228.1 281.7 226.5 C 281.7 224.9 280.3 223.6 278.7 223.6 C 277.1 223.6 275.8 224.9 275.8 226.5 C 275.8 228.1 277.1 229.4 278.7 229.4 Z" opacity=".3"/></g><defs><clipPath id="clip0"><rect width="631" height="343" fill="#ffffff"/></clipPath></defs></svg>